HIERARCHY
ROOT Hips
{
	OFFSET 228.634003 92.561920 -263.051910
	CHANNELS 6 Xposition Yposition Zposition Zrotation Yrotation Xrotation 
	JOINT LeftUpLeg
	{
		OFFSET 0.103458 1.857820 10.548502
		CHANNELS 3 Zrotation Yrotation Xrotation
		JOINT LeftLeg
		{
			OFFSET 43.500000 -0.000023 -0.000011
			CHANNELS 3 Zrotation Yrotation Xrotation
			JOINT LeftFoot
			{
				OFFSET 42.372192 0.000038 0.000002
				CHANNELS 3 Zrotation Yrotation Xrotation
				JOINT LeftToe
				{
					OFFSET 17.299992 -0.000004 0.000006
					CHANNELS 3 Zrotation Yrotation Xrotation
					End Site
					{
						OFFSET 0.000000 0.000000 0.000000
					}
				}
			}
		}
	}
	JOINT RightUpLeg
	{
		OFFSET 0.103461 1.857814 -10.548508
		CHANNELS 3 Zrotation Yrotation Xrotation
		JOINT RightLeg
		{
			OFFSET 43.500042 -0.000015 0.000008
			CHANNELS 3 Zrotation Yrotation Xrotation
			JOINT RightFoot
			{
				OFFSET 42.372253 0.000008 0.000006
				CHANNELS 3 Zrotation Yrotation Xrotation
				JOINT RightToe
				{
					OFFSET 17.299973 -0.000014 0.000011
					CHANNELS 3 Zrotation Yrotation Xrotation
					End Site
					{
						OFFSET 0.000000 0.000000 0.000000
					}
				}
			}
		}
	}
	JOINT Spine
	{
		OFFSET 6.901966 -2.603737 -0.000007
		CHANNELS 3 Zrotation Yrotation Xrotation
		JOINT Spine1
		{
			OFFSET 12.588102 0.000017 0.000001
			CHANNELS 3 Zrotation Yrotation Xrotation
			JOINT Spine2
			{
				OFFSET 12.343197 -0.000013 0.000000
				CHANNELS 3 Zrotation Yrotation Xrotation
				JOINT Neck
				{
					OFFSET 25.832905 -0.000008 0.000000
					CHANNELS 3 Zrotation Yrotation Xrotation
					JOINT Head
					{
						OFFSET 11.766610 0.000009 -0.000002
						CHANNELS 3 Zrotation Yrotation Xrotation
						End Site
						{
							OFFSET 0.000000 0.000000 0.000000
						}
					}
				}
				JOINT LeftShoulder
				{
					OFFSET 19.745903 -1.480377 6.000115
					CHANNELS 3 Zrotation Yrotation Xrotation
					JOINT LeftArm
					{
						OFFSET 11.284125 -0.000014 -0.000024
						CHANNELS 3 Zrotation Yrotation Xrotation
						JOINT LeftForeArm
						{
							OFFSET 33.000046 -0.000012 0.000029
							CHANNELS 3 Zrotation Yrotation Xrotation
							JOINT LeftHand
							{
								OFFSET 25.199989 0.000034 0.000012
								CHANNELS 3 Zrotation Yrotation Xrotation
								End Site
								{
									OFFSET 0.000000 0.000000 0.000000
								}
							}
						}
					}
				}
				JOINT RightShoulder
				{
					OFFSET 19.746098 -1.480362 -6.000071
					CHANNELS 3 Zrotation Yrotation Xrotation
					JOINT RightArm
					{
						OFFSET 11.284137 -0.000006 -0.000008
						CHANNELS 3 Zrotation Yrotation Xrotation
						JOINT RightForeArm
						{
							OFFSET 33.000095 0.000017 0.000000
							CHANNELS 3 Zrotation Yrotation Xrotation
							JOINT RightHand
							{
								OFFSET 25.199778 0.000144 0.000423
								CHANNELS 3 Zrotation Yrotation Xrotation
								End Site
								{
									OFFSET 0.000000 0.000000 0.000000
								}
							}
						}
					}
				}
			}
		}
	}
}
MOTION
Frames: 5
Frame Time: 0.033333
-55.538052 85.197487 158.591507 92.250912 10.904497 100.311887 -167.224368 1.755599 178.494003 -77.224270 0.459955 -8.630791 65.928100 2.529406 -9.782871 21.454551 0.003095 0.000001 158.472874 -0.661707 178.816866 -35.768854 5.926903 8.339033 72.554245 -7.129675 -3.376257 21.454560 -0.003110 -0.000017 8.241696 0.569813 -2.080663 6.448365 1.254198 -4.126659 6.131080 1.229397 -4.134127 3.090629 -0.582752 -4.554432 -3.827511 2.778129 -5.378569 -172.342215 -75.138815 -9.313720 1.398043 55.153156 29.008568 -93.598255 -2.946311 2.670979 -5.895992 0.617229 36.684287 -146.713980 66.657298 35.790232 22.940720 -42.840299 -45.887140 -77.972798 10.168070 -2.528178 -9.902589 7.625713 -19.596369 
-54.281860 82.306480 166.436203 90.752375 13.589098 98.364075 -171.103028 -0.701991 175.074073 -88.504901 2.565727 -9.179457 68.152229 3.979808 -7.149112 21.454558 0.003094 0.000004 157.927006 -3.390398 179.850356 -51.557598 4.565577 7.311502 83.934460 -5.587442 -2.018018 21.454560 -0.003106 -0.000018 9.177210 1.066034 -1.349294 8.317664 2.226078 -2.619000 7.999668 2.210360 -2.632369 0.713126 -0.576876 -4.669059 -2.967263 2.123370 -5.306968 -170.457520 -73.558713 -11.239314 1.271964 55.676383 27.359711 -87.436571 -6.064227 2.615830 -4.915489 0.151216 43.188434 -152.182994 65.228013 30.170732 11.717136 -43.281669 -37.631276 -76.012082 11.702499 -2.550925 -10.418694 9.131559 -19.617581 
-52.829411 80.623108 173.589203 89.362910 14.669694 97.007811 -177.952888 -1.901305 174.709764 -96.227660 3.390262 -10.044936 70.294073 5.217945 -5.521488 21.454557 0.003087 -0.000011 160.463588 -3.985108 -178.918608 -58.729047 4.656284 6.021021 91.794696 -4.424390 -1.719930 21.454557 -0.003112 -0.000017 9.754187 1.447492 -0.865041 9.477878 2.960825 -1.609085 9.159432 2.951190 -1.626945 -0.267872 -0.362173 -4.485944 -2.501077 1.813195 -4.998850 -167.030282 -71.563123 -14.762318 5.075670 55.424745 28.132378 -84.488702 -7.856021 2.611457 -5.130252 -0.791303 45.877646 -157.577969 65.038482 24.572570 0.148970 -43.306101 -29.075504 -75.691958 12.778898 -2.612371 -11.072625 7.821930 -25.093927 
-51.222630 79.992882 180.633804 88.744682 14.720705 96.116205 174.224670 -1.933593 175.307501 -99.031965 3.549121 -10.449654 71.342405 5.737807 -4.909417 21.454548 0.003093 0.000000 164.621288 -3.230191 -176.714479 -61.479093 3.630182 4.171240 97.656918 -3.004552 -1.629810 21.454558 -0.003108 -0.000017 9.885253 1.610095 -0.355380 9.753419 3.244282 -0.573962 9.434785 3.240885 -0.593542 2.079715 -0.482386 -4.637369 -2.952641 2.036481 -5.244614 -162.716006 -70.711104 -19.211480 12.809581 54.596048 32.687943 -85.394925 -6.472217 2.554471 -5.735034 -3.542909 37.175156 -161.353998 66.084614 20.633797 -7.107843 -43.224408 -22.743946 -79.008323 11.136950 -2.640698 -11.979854 7.188588 -26.861450 
-49.588848 80.580360 187.567505 88.344904 14.169095 94.317201 167.030978 -2.334598 174.720597 -96.052780 3.217554 -10.904579 71.801845 6.051298 -5.145500 21.454551 0.003091 -0.000005 170.228258 -2.534003 -178.216602 -59.651402 4.364517 3.162878 100.753104 -2.275412 -1.483029 21.454560 -0.003110 -0.000016 9.780803 1.570723 0.632750 9.570994 3.083647 1.393765 9.252507 3.092134 1.375104 4.413133 -0.273058 -5.231533 -1.221899 2.378234 -5.860048 -157.495174 -70.992494 -24.584776 19.469012 53.306481 38.892555 -87.640848 -4.867262 2.541191 -5.788327 -5.115539 31.409328 -161.967063 67.107701 19.984912 -11.447110 -43.223414 -18.864043 -83.722301 8.651956 -2.673248 -11.840460 6.679639 -24.764418 
